<svg width="24" height="23" viewBox="0 0 24 23" fill="none" xmlns="http://www.w3.org/2000/svg">
<path d="M18.017 22.3781C18.4375 22.3785 18.8411 22.2152 19.1399 21.9236L19.14 21.9234L22.5845 18.5331L22.5846 18.5331C22.8826 18.2383 23.05 17.8393 23.05 17.4231C23.05 17.0097 22.8847 16.6131 22.5904 16.319L22.5879 16.3141L22.5822 16.3084L20.1033 13.8565L20.1032 13.8565C19.8036 13.5617 19.3975 13.3962 18.9742 13.3962C18.5509 13.3962 18.1447 13.5617 17.8451 13.8565L15.289 16.3605L7.06309 8.26408L9.60839 5.76121L9.60845 5.76115C9.90719 5.46632 10.0751 5.06674 10.0751 4.65C10.0751 4.23326 9.90719 3.83369 9.60845 3.53886L9.60842 3.53883L7.11489 1.08213L7.11487 1.0821C6.81525 0.787328 6.40912 0.621875 5.98583 0.621875C5.56253 0.621875 5.15641 0.787328 4.85679 1.0821L4.85678 1.08211L1.41718 4.46759L1.41717 4.4676C1.26904 4.61347 1.15152 4.78667 1.07134 4.97734C0.99117 5.16801 0.94993 5.37238 0.95 5.57878C0.95 5.57879 0.95 5.57879 0.95 5.5788L0.95 5.99986H0.949972L0.950028 6.00154C0.991992 7.2528 1.56381 8.84459 2.60704 10.6162L2.60739 10.6168C3.86571 12.6896 5.38813 14.5955 7.13763 16.2882C8.8509 18.0032 10.7789 19.4966 12.8751 20.7326L12.8756 20.7329C14.6683 21.7598 16.285 22.3247 17.5578 22.3781L17.5578 22.3781H17.5599H18.017ZM18.017 22.3781L18.0171 22.3281M18.017 22.3781H18.0171V22.3281M18.0171 22.3281H17.5599L22.5494 16.3488C22.838 16.6342 23 17.0205 23 17.4231C23 17.8258 22.838 18.2121 22.5494 18.4975L19.105 21.8878C18.8157 22.1702 18.4246 22.3285 18.0171 22.3281ZM22.0336 17.9846C22.107 17.9116 22.1653 17.8254 22.2054 17.7307C22.2465 17.6336 22.2677 17.5295 22.2677 17.4244C22.2677 17.3192 22.2465 17.2151 22.2054 17.118C22.1643 17.0209 22.104 16.9327 22.028 16.8586L22.0278 16.8584L19.5441 14.4065L19.5439 14.4063C19.4687 14.3312 19.3791 14.2716 19.2803 14.2309C19.1814 14.1902 19.0753 14.1692 18.9681 14.1692C18.8608 14.1692 18.7547 14.1902 18.6558 14.2309C18.557 14.2716 18.4674 14.3313 18.3922 14.4063L18.392 14.4065L15.8153 16.9451L15.8153 16.9451L15.3264 17.4263L15.2913 17.4608L15.2563 17.4263L14.7673 16.9451L6.47025 8.78335L6.47024 8.78334L5.98131 8.30211L5.94511 8.26647L5.98131 8.23084L6.47022 7.74962L6.47024 7.74961L9.04931 5.20871L9.04949 5.20854C9.12547 5.1344 9.18575 5.04623 9.22686 4.94914C9.26798 4.85204 9.28914 4.74792 9.28914 4.64278C9.28914 4.53764 9.26798 4.43352 9.22686 4.33643C9.18575 4.23933 9.12547 4.15116 9.04949 4.07703L9.04934 4.07689L6.56315 1.63222L6.56298 1.63205C6.48766 1.55726 6.39799 1.49785 6.29913 1.45729C6.20027 1.41674 6.0942 1.39585 5.98705 1.39585C5.8799 1.39585 5.77383 1.41674 5.67497 1.45729C5.57611 1.49785 5.48644 1.55726 5.41112 1.63205L5.41095 1.63222L1.96905 5.01757C1.96902 5.01759 1.969 5.01761 1.96897 5.01764C1.88581 5.10008 1.82171 5.19911 1.78096 5.30799C1.7566 5.3949 1.74745 5.48526 1.75393 5.57519L1.75418 5.57878H1.75405V5.97739C1.79055 7.0933 2.32824 8.56158 3.30424 10.2284C4.52415 12.2413 6.00013 14.0928 7.69643 15.7378L7.69702 15.7384C9.36184 17.4063 11.2354 18.859 13.2727 20.0616C14.9562 21.0245 16.4509 21.5565 17.5854 21.602H18.0146H18.0147C18.109 21.6021 18.2026 21.586 18.2912 21.5544C18.4017 21.5148 18.5023 21.4522 18.5859 21.3709L22.0336 17.9846ZM22.0336 17.9846L22.0288 17.987L22.023 17.9926L18.586 21.3707L22.0336 17.9846Z" stroke="#E62379" stroke-width=".5"/>
</svg>
