<svg width="16" height="19" viewBox="0 0 16 19" fill="none" xmlns="http://www.w3.org/2000/svg">
<path d="M8.0174 12.0387C6.08943 12.0385 4.22423 12.693 2.75538 13.8854C1.28654 15.0777 0.309853 16.7301 0 18.5469H1.16026C1.46226 17.026 2.3108 15.6534 3.55948 14.666C4.80816 13.6786 6.37865 13.1383 8 13.1383C9.62135 13.1383 11.1918 13.6786 12.4405 14.666C13.6892 15.6534 14.5377 17.026 14.8397 18.5469H16C15.6911 16.7357 14.7195 15.0878 13.2579 13.8961C11.7963 12.7045 9.93939 12.0463 8.0174 12.0387Z" fill="#E62379"/>
<path d="M8.0174 10.931C9.24144 10.9307 10.4275 10.5252 11.3735 9.78355C12.3195 9.04193 12.9669 8.01009 13.2054 6.86384C13.4439 5.71758 13.2588 4.52783 12.6815 3.49729C12.1043 2.46676 11.1706 1.6592 10.0396 1.21221C8.90868 0.765228 7.65037 0.70647 6.47912 1.04595C5.30786 1.38543 4.29613 2.10215 3.6163 3.07398C2.93647 4.04582 2.6306 5.21264 2.75081 6.37565C2.87103 7.53865 3.40988 8.62589 4.27556 9.4521C5.26842 10.3988 6.61419 10.9307 8.0174 10.931ZM8.0174 1.93036C8.83599 1.92926 9.6365 2.16008 10.3176 2.59361C10.9987 3.02713 11.5298 3.64385 11.8436 4.3657C12.1573 5.08754 12.2398 5.88205 12.0803 6.64864C11.9209 7.41522 11.5269 8.11941 10.948 8.67204C10.3692 9.22468 9.63165 9.60092 8.82874 9.75312C8.02583 9.90533 7.19367 9.82665 6.43762 9.52706C5.68157 9.22747 5.03562 8.72043 4.58155 8.07015C4.12749 7.41986 3.88573 6.65556 3.88687 5.87401C3.88994 4.82899 4.3261 3.8276 5.10006 3.08865C5.87402 2.34971 6.92286 1.93328 8.0174 1.93036Z" fill="#E62379"/>
</svg>
